<svg width="87" height="87" viewBox="0 0 87 87" fill="none" xmlns="http://www.w3.org/2000/svg">
<path d="M43.498 72.166C58.3407 72.166 70.373 60.1337 70.373 45.291C70.373 30.4483 58.3407 18.416 43.498 18.416C28.6553 18.416 16.623 30.4483 16.623 45.291C16.623 60.1337 28.6553 72.166 43.498 72.166Z" stroke="black" stroke-width="7.16667" stroke-linecap="round" stroke-linejoin="round"/>
<path d="M36.3317 20.209C39.5652 22.0155 42.6026 24.6882 42.348 28.1737C42.1444 30.959 39.7624 31.5805 39.2642 33.5947C38.7663 35.6089 41.648 37.8062 36.7728 41.0568C33.5228 43.2238 23.7378 47.3432 16.623 43.5007" stroke="black" stroke-width="7.16667" stroke-linecap="round"/>
<path d="M17.5213 44.394C12.1463 47.7772 4.20589 56.9733 7.66796 63.2065C12.1461 71.269 29.1677 64.4438 48.8755 48.8731C68.5834 33.3025 76.1608 10.543 76.1608 10.543L66.7929 13.0398" stroke="black" stroke-width="7.16667" stroke-linecap="round" stroke-linejoin="round"/>
<path d="M47.0859 72.1673C47.0859 72.1673 47.9812 63.209 54.2515 57.834C60.5218 52.459 68.5861 52.459 68.5861 52.459" stroke="black" stroke-width="7.16667" stroke-linecap="round"/>
</svg>
