<svg width="71" height="71" viewBox="0 0 71 71" fill="none" xmlns="http://www.w3.org/2000/svg">
<g clip-path="url(#clip0_2523_7108)">
<path d="M0 35.5C0 26.0848 3.74017 17.0553 10.3977 10.3977C17.0553 3.74017 26.0848 0 35.5 0C44.9152 0 53.9448 3.74017 60.6023 10.3977C67.2598 17.0553 71 26.0848 71 35.5C71 44.9152 67.2598 53.9448 60.6023 60.6023C53.9448 67.2598 44.9152 71 35.5 71C26.0848 71 17.0553 67.2598 10.3977 60.6023C3.74017 53.9448 0 44.9152 0 35.5ZM35.5 6.65625C27.8502 6.65625 20.5136 9.69514 15.1044 15.1044C9.69514 20.5136 6.65625 27.8502 6.65625 35.5C6.65625 43.1498 9.69514 50.4864 15.1044 55.8956C20.5136 61.3049 27.8502 64.3438 35.5 64.3438C43.1498 64.3438 50.4864 61.3049 55.8956 55.8956C61.3049 50.4864 64.3438 43.1498 64.3438 35.5C64.3438 27.8502 61.3049 20.5136 55.8956 15.1044C50.4864 9.69514 43.1498 6.65625 35.5 6.65625ZM30.7075 27.0022C30.3132 27.7919 29.6259 28.3926 28.7887 28.6722C27.9515 28.9519 27.0375 28.8874 26.2478 28.4932C25.4581 28.0989 24.8574 27.4071 24.5778 26.5699C24.2981 25.7327 24.3626 24.8188 24.7568 24.0291C25.5068 22.5247 26.6916 20.9184 28.5243 19.6936C30.3747 18.46 32.6999 17.75 35.5 17.75C38.1077 17.7334 40.6526 18.5496 42.7642 20.0797C44.9963 21.7526 46.5938 24.3619 46.5938 27.7344C46.5938 29.7224 46.0834 31.4175 45.1338 32.8375C44.2241 34.1998 43.0482 35.1139 42.0631 35.7751C41.5794 36.0946 41.0868 36.3875 40.6741 36.6404L40.6475 36.6582C40.257 36.885 39.8722 37.1218 39.4937 37.3682C39.0216 37.6515 38.6063 38.0201 38.269 38.4554C37.7749 39.1791 37.0153 39.6788 36.155 39.846C35.2948 40.0131 34.4033 39.8342 33.6742 39.3481C32.945 38.862 32.437 38.1079 32.2604 37.2496C32.0839 36.3912 32.2529 35.4978 32.731 34.7634C33.5475 33.5919 34.5947 32.5934 35.8018 31.8302C36.2573 31.5344 36.7203 31.2459 37.1907 30.9649L37.2217 30.9471C37.6655 30.6764 38.0294 30.459 38.3666 30.2327C38.8404 29.9499 39.2572 29.5812 39.5958 29.1455C39.76 28.9059 39.9375 28.5198 39.9375 27.7344C39.9552 27.2796 39.8579 26.8278 39.6547 26.4206C39.4515 26.0134 39.1489 25.664 38.7749 25.4047C37.8132 24.7403 36.6688 24.3914 35.5 24.4062C33.8626 24.4062 32.8597 24.8056 32.2163 25.2361C31.5654 25.6804 31.0447 26.29 30.7075 27.0022ZM39.9375 48.8125C39.9375 49.9894 39.47 51.1181 38.6378 51.9503C37.8056 52.7825 36.6769 53.25 35.5 53.25C34.3231 53.25 33.1944 52.7825 32.3622 51.9503C31.53 51.1181 31.0625 49.9894 31.0625 48.8125C31.0625 47.6356 31.53 46.5069 32.3622 45.6747C33.1944 44.8425 34.3231 44.375 35.5 44.375C36.6769 44.375 37.8056 44.8425 38.6378 45.6747C39.47 46.5069 39.9375 47.6356 39.9375 48.8125Z" fill="black"/>
</g>
<defs>
<clipPath id="clip0_2523_7108">
<rect width="71" height="71" fill="white"/>
</clipPath>
</defs>
</svg>
