<svg width="79" height="79" viewBox="0 0 79 79" fill="none" xmlns="http://www.w3.org/2000/svg">
<path d="M13.1673 62.5423V26.334H65.834V37.1636C68.204 37.8877 70.4423 38.9411 72.4173 40.3565V26.334C72.4173 22.6802 69.4877 19.7507 65.834 19.7507H52.6673V13.1673C52.6673 9.51357 49.7377 6.58398 46.084 6.58398H32.9173C29.2636 6.58398 26.334 9.51357 26.334 13.1673V19.7507H13.1673C9.51357 19.7507 6.6169 22.6802 6.6169 26.334L6.58398 62.5423C6.58398 66.1961 9.51357 69.1257 13.1673 69.1257H38.4473C37.4598 67.0848 36.8015 64.8794 36.4723 62.5423H13.1673ZM32.9173 13.1673H46.084V19.7507H32.9173V13.1673Z" fill="black"/>
<path d="M59.2493 42.791C50.1643 42.791 42.791 50.1643 42.791 59.2493C42.791 68.3343 50.1643 75.7077 59.2493 75.7077C68.3343 75.7077 75.7077 68.3343 75.7077 59.2493C75.7077 50.1643 68.3343 42.791 59.2493 42.791ZM64.6806 66.9848L57.6035 59.9077V49.3743H60.8952V58.5581L66.9848 64.6477L64.6806 66.9848Z" fill="black"/>
</svg>
